# xmcd
#
# Track frame offsets:
#	150
#	25316
#	51111
#	70526
#	95561
#	116507
#	137357
#	151220
#	164580
#	181081
#	206283
#
# Disc length: 2966 seconds
#
# Revision: 2
# Processed by: cddbd v1.5.2PL0 Copyright (c) Steve Scherf et al.
# Submitted via: audiograbber 1.83.01
#
DISCID=860b940b
DTITLE=Barclay James Harvest - Everyone Is Everybody Else [Deluxe Edition ] [CD
DTITLE=2) [New Stereo Mix 2016]
DYEAR=2016
DGENRE=Progressive Rock
TTITLE0=Child Of The Universe
TTITLE1=Negative Earth
TTITLE2=Paper Wings
TTITLE3=The Great 1974 Mining Disaster
TTITLE4=Crazy City
TTITLE5=See Me, See You
TTITLE6=Poor Boy Blues
TTITLE7=Mill Boys
TTITLE8=Bonus Track: Child Of The Universe [US single version new stereo mix]
TTITLE9=Bonus Track: Negative Earth [original mix]
TTITLE10=Bonus Track: Child Of The Universe [remake of US single]
EXTD=
EXTT0=
EXTT1=
EXTT2=
EXTT3=
EXTT4=
EXTT5=
EXTT6=
EXTT7=
EXTT8=
EXTT9=
EXTT10=
PLAYORDER=
